<?xml version="1.0" standalone="no"?>
<!DOCTYPE svg PUBLIC "-//W3C//DTD SVG 20010904//EN"
 "http://www.w3.org/TR/2001/REC-SVG-20010904/DTD/svg10.dtd">
<svg version="1.0" xmlns="http://www.w3.org/2000/svg"
 width="69.000000pt" height="45.000000pt" viewBox="0 0 69.000000 45.000000"
 preserveAspectRatio="xMidYMid meet">

<g transform="translate(0.000000,45.000000) scale(0.100000,-0.100000)"
fill="#000000" stroke="none">
<path d="M411 369 c-6 -18 -11 -55 -11 -84 0 -55 -27 -105 -56 -105 -21 0 -17
28 6 35 37 12 41 88 4 93 -24 3 -48 -21 -61 -62 -5 -17 -15 -32 -23 -34 -10
-4 -12 7 -7 54 4 33 9 68 12 79 3 11 1 27 -5 35 -16 23 -40 -15 -40 -62 0 -48
-23 -94 -51 -103 -30 -10 -34 -1 -20 59 15 69 4 96 -39 96 -36 0 -38 -12 -8
-32 22 -15 22 -18 10 -62 -16 -60 -15 -71 4 -91 19 -19 58 -13 87 12 25 23 21
0 -8 -43 -28 -41 -32 -85 -10 -104 34 -28 75 18 75 85 0 41 15 53 39 31 22
-20 50 -20 72 0 16 14 20 14 43 -1 25 -17 27 -17 54 13 l28 30 16 -29 c10 -16
22 -29 28 -29 17 0 50 39 50 60 0 11 5 20 11 20 7 0 0 9 -14 20 -14 11 -34 20
-45 20 -12 0 -23 -9 -27 -20 -9 -27 -22 -25 -29 5 -4 16 -13 25 -26 25 -23 0
-26 -21 -8 -50 14 -23 -2 -48 -22 -35 -9 6 -10 24 -5 64 12 87 11 134 -1 138
-7 2 -17 -10 -23 -28z m-70 -122 c-8 -8 -11 -7 -11 4 0 20 13 34 18 19 3 -7
-1 -17 -7 -23z m226 -41 c-4 -9 -11 -16 -17 -16 -11 0 -14 33 -3 44 11 10 26
-11 20 -28z m-341 -124 c-12 -11 -18 7 -10 30 l8 23 4 -23 c2 -13 1 -26 -2
-30z"/>
</g>
</svg>
